<?xml version="1.0" encoding="UTF-8" standalone="no"?>
<!-- Created with Inkscape (http://www.inkscape.org/) -->

<svg
   width="60mm"
   height="40mm"
   viewBox="0 0 60 40"
   version="1.1"
   id="svg1"
   sodipodi:docname="mmr1.svg"
   inkscape:version="1.4.2 (1:1.4.2+202505120737+ebf0e940d0)"
   xmlns:inkscape="http://www.inkscape.org/namespaces/inkscape"
   xmlns:sodipodi="http://sodipodi.sourceforge.net/DTD/sodipodi-0.dtd"
   xmlns="http://www.w3.org/2000/svg"
   xmlns:svg="http://www.w3.org/2000/svg">
  <sodipodi:namedview
     id="namedview1"
     pagecolor="#ffffff"
     bordercolor="#000000"
     borderopacity="0.25"
     inkscape:showpageshadow="2"
     inkscape:pageopacity="0.0"
     inkscape:pagecheckerboard="0"
     inkscape:deskcolor="#d1d1d1"
     inkscape:document-units="mm"
     inkscape:zoom="16.428527"
     inkscape:cx="91.974162"
     inkscape:cy="120.24815"
     inkscape:window-width="1920"
     inkscape:window-height="1065"
     inkscape:window-x="0"
     inkscape:window-y="0"
     inkscape:window-maximized="1"
     inkscape:current-layer="g452" />
  <defs
     id="defs1" />
  <g
     inkscape:label="Layer 1"
     inkscape:groupmode="layer"
     id="layer1">
    <g
       id="g452"
       transform="matrix(2,0,0,2,-87.374117,-140.50318)">
      <ellipse
         style="fill:#808080;fill-opacity:1;stroke:none;stroke-width:0.600001;stroke-linejoin:round;stroke-opacity:1"
         id="circle434"
         cx="55.242435"
         cy="85.220108"
         rx="2.0139544"
         ry="2.0179913" />
      <path
         style="fill:#c812e6;fill-opacity:1;stroke:#808080;stroke-width:0.3;stroke-linejoin:round;stroke-dasharray:none;stroke-opacity:1"
         d="M 55.242436,85.220108 58.562015,74.553873"
         id="path435"
         sodipodi:nodetypes="cc" />
      <path
         style="fill:#c812e6;fill-opacity:1;stroke:#bbbbbb;stroke-width:0.3;stroke-linejoin:round;stroke-dasharray:none;stroke-opacity:1"
         d="M 51.000274,74.462036 H 66.373843"
         id="path436"
         sodipodi:nodetypes="cc" />
      <path
         style="fill:#c812e6;fill-opacity:1;stroke:#bbbbbb;stroke-width:0.3;stroke-linejoin:round;stroke-dasharray:none;stroke-opacity:1"
         d="m 52.414328,74.421705 2.742406,-2.747903"
         id="path437" />
      <path
         style="fill:#c812e6;fill-opacity:1;stroke:#bbbbbb;stroke-width:0.3;stroke-linejoin:round;stroke-dasharray:none;stroke-opacity:1"
         d="m 59.114477,74.421705 2.742406,-2.747903"
         id="path438" />
      <path
         style="fill:#c812e6;fill-opacity:1;stroke:#bbbbbb;stroke-width:0.3;stroke-linejoin:round;stroke-dasharray:none;stroke-opacity:1"
         d="M 55.764404,74.421705 58.50681,71.673802"
         id="path440" />
      <path
         style="fill:#c812e6;fill-opacity:1;stroke:#bbbbbb;stroke-width:0.3;stroke-linejoin:round;stroke-dasharray:none;stroke-opacity:1"
         d="m 62.464553,74.421705 2.742406,-2.747903"
         id="path441" />
      <path
         id="use1"
         d="m 54.682224,86.104087 q -0.08867,0 -0.09404,-0.08061 0,-0.02687 0.134342,-0.56961 0.134343,-0.542742 0.14509,-0.558863 0.04299,-0.147776 0.147777,-0.287491 0.188079,-0.231069 0.427209,-0.268684 0.0054,0 0.0215,0 0.01612,0 0.02687,-0.0027 0.19614,0 0.300927,0.128968 0.104788,0.128968 0.104788,0.317047 0,0.15315 -0.06449,0.298239 -0.06448,0.14509 -0.163898,0.244503 -0.09941,0.09941 -0.214948,0.163897 -0.115534,0.06448 -0.212261,0.0618 h -0.02956 -0.01881 q -0.13703,0 -0.223009,-0.120907 l -0.01343,-0.01612 -0.07254,0.300926 q -0.06717,0.260623 -0.07792,0.295552 -0.01075,0.03493 -0.03224,0.05642 -0.04299,0.03762 -0.09135,0.03762 z m 0.983387,-1.445519 q 0,-0.09941 -0.04568,-0.161211 -0.04568,-0.0618 -0.134343,-0.0618 -0.09404,0 -0.188079,0.07792 -0.09404,0.07792 -0.150464,0.2042 -0.03762,0.08329 -0.1021,0.349289 l -0.04568,0.182705 q 0.04568,0.2042 0.225695,0.2042 0.1021,0 0.198827,-0.09673 0.08867,-0.08061 0.147777,-0.257937 0.05911,-0.177331 0.07792,-0.290178 0.01881,-0.112848 0.01612,-0.150463 z"
         style="fill:#000000;stroke:#000000;stroke-width:0" />
      <g
         id="path443"
         style="opacity:1;fill:#000000;fill-opacity:1">
        <path
           style="baseline-shift:baseline;display:inline;overflow:visible;vector-effect:none;fill:#000000;stroke-linejoin:round;enable-background:accumulate;stop-color:#000000;stop-opacity:1;fill-opacity:1"
           d="m 55.294922,87.935547 -0.105469,0.279297 c 2.536698,0.960014 4.209395,0.960014 6.746094,0 l -0.107422,-0.279297 c -2.497207,0.945068 -4.035997,0.945068 -6.533203,0 z"
           id="path8" />
        <g
           id="g2"
           style="fill:#000000;fill-opacity:1">
          <g
             id="path2"
             style="opacity:1;fill:#000000;fill-opacity:1">
            <path
               style="baseline-shift:baseline;display:inline;overflow:visible;vector-effect:none;fill:#000000;fill-rule:evenodd;enable-background:accumulate;stop-color:#000000;stop-opacity:1;fill-opacity:1"
               d="m 54.837698,87.921864 0.739485,-0.121099 -0.265464,0.701448 z"
               id="path3" />
            <path
               style="baseline-shift:baseline;display:inline;overflow:visible;vector-effect:none;fill:#000000;fill-rule:evenodd;enable-background:accumulate;stop-color:#000000;stop-opacity:1;fill-opacity:1"
               d="m 55.654297,87.738281 -0.910156,0.148438 0.583984,0.714843 z m -0.154297,0.125 -0.205078,0.541016 -0.363281,-0.447266 z"
               id="path4" />
          </g>
          <g
             id="path5"
             style="opacity:1;fill:#000000;fill-opacity:1">
            <path
               style="baseline-shift:baseline;display:inline;overflow:visible;vector-effect:none;fill:#000000;fill-rule:evenodd;enable-background:accumulate;stop-color:#000000;stop-opacity:1;fill-opacity:1"
               d="m 62.286328,87.921864 -0.474022,0.580349 -0.265463,-0.701448 z"
               id="path6" />
            <path
               style="baseline-shift:baseline;display:inline;overflow:visible;vector-effect:none;fill:#000000;fill-rule:evenodd;enable-background:accumulate;stop-color:#000000;stop-opacity:1;fill-opacity:1"
               d="m 61.46875,87.738281 0.328125,0.863281 0.582031,-0.714843 z m 0.15625,0.125 0.568359,0.09375 -0.365234,0.445313 z"
               id="path7" />
          </g>
        </g>
      </g>
    </g>
  </g>
</svg>
