<?xml version="1.0" encoding="UTF-8" standalone="no"?>
<!-- Created with Inkscape (http://www.inkscape.org/) -->

<svg
   width="60mm"
   height="40mm"
   viewBox="0 0 60 40"
   version="1.1"
   id="svg1"
   sodipodi:docname="mmr2.svg"
   inkscape:version="1.4.2 (1:1.4.2+202505120737+ebf0e940d0)"
   xmlns:inkscape="http://www.inkscape.org/namespaces/inkscape"
   xmlns:sodipodi="http://sodipodi.sourceforge.net/DTD/sodipodi-0.dtd"
   xmlns="http://www.w3.org/2000/svg"
   xmlns:svg="http://www.w3.org/2000/svg">
  <sodipodi:namedview
     id="namedview1"
     pagecolor="#ffffff"
     bordercolor="#000000"
     borderopacity="0.25"
     inkscape:showpageshadow="2"
     inkscape:pageopacity="0.0"
     inkscape:pagecheckerboard="0"
     inkscape:deskcolor="#d1d1d1"
     inkscape:document-units="mm"
     inkscape:zoom="4.1071317"
     inkscape:cx="91.304595"
     inkscape:cy="130.86992"
     inkscape:window-width="1920"
     inkscape:window-height="1065"
     inkscape:window-x="0"
     inkscape:window-y="0"
     inkscape:window-maximized="1"
     inkscape:current-layer="g453" />
  <defs
     id="defs1" />
  <g
     inkscape:label="Layer 1"
     inkscape:groupmode="layer"
     id="layer1">
    <g
       id="g453"
       transform="matrix(2,0,0,2,-90.717985,-195.16991)">
      <path
         style="fill:none;fill-opacity:1;stroke:#769ab2;stroke-width:0.3;stroke-linejoin:round;stroke-dasharray:none;stroke-opacity:1"
         d="m 56.686127,111.7351 h 2.046416 l 0.252061,-0.94259 0.504122,1.88518 0.50412,-1.88518 0.504122,1.88518 0.504121,-1.88518 0.504121,1.88518 0.25206,-0.94259 h 1.359317"
         id="path418"
         sodipodi:nodetypes="cccccccccc" />
      <path
         style="fill:#808080;fill-opacity:1;stroke:#808080;stroke-width:0.3;stroke-linejoin:round;stroke-dasharray:none;stroke-opacity:1"
         d="m 65.000133,111.67844 -2.60431,-10.78767"
         id="path5"
         sodipodi:nodetypes="cc" />
      <ellipse
         style="fill:#808080;fill-opacity:1;stroke:none;stroke-width:0.600001;stroke-linejoin:round;stroke-opacity:1"
         id="ellipse3"
         cx="55.242435"
         cy="111.67844"
         rx="2.0139544"
         ry="2.0179913" />
      <path
         style="fill:#c812e6;fill-opacity:1;stroke:#808080;stroke-width:0.3;stroke-linejoin:round;stroke-dasharray:none;stroke-opacity:1"
         d="m 55.242436,111.67844 3.319579,-10.66623"
         id="path4"
         sodipodi:nodetypes="cc" />
      <ellipse
         style="fill:#1f77b4;fill-opacity:1;stroke-width:0.600001;stroke-linejoin:round"
         id="circle4"
         cx="-65.00013"
         cy="111.67844"
         transform="scale(-1,1)"
         rx="2.0139544"
         ry="2.0179913" />
      <path
         style="fill:#c812e6;fill-opacity:1;stroke:#bbbbbb;stroke-width:0.3;stroke-linejoin:round;stroke-dasharray:none;stroke-opacity:1"
         d="M 51.000274,100.92037 H 69.717711"
         id="path6"
         sodipodi:nodetypes="cc" />
      <path
         style="fill:#c812e6;fill-opacity:1;stroke:#bbbbbb;stroke-width:0.3;stroke-linejoin:round;stroke-dasharray:none;stroke-opacity:1"
         d="m 52.414328,100.88004 2.742406,-2.747903"
         id="path7" />
      <path
         style="fill:#c812e6;fill-opacity:1;stroke:#bbbbbb;stroke-width:0.3;stroke-linejoin:round;stroke-dasharray:none;stroke-opacity:1"
         d="m 59.114477,100.88004 2.742406,-2.747903"
         id="path8" />
      <path
         style="fill:#c812e6;fill-opacity:1;stroke:#bbbbbb;stroke-width:0.3;stroke-linejoin:round;stroke-dasharray:none;stroke-opacity:1"
         d="m 65.814625,100.88004 2.742407,-2.747903"
         id="path9" />
      <path
         style="fill:#c812e6;fill-opacity:1;stroke:#bbbbbb;stroke-width:0.3;stroke-linejoin:round;stroke-dasharray:none;stroke-opacity:1"
         d="M 55.764404,100.88004 58.50681,98.132137"
         id="path10" />
      <path
         style="fill:#c812e6;fill-opacity:1;stroke:#bbbbbb;stroke-width:0.3;stroke-linejoin:round;stroke-dasharray:none;stroke-opacity:1"
         d="m 62.464553,100.88004 2.742406,-2.747903"
         id="path11" />
      <g
         id="path449"
         style="opacity:1;fill:#000000;fill-opacity:1">
        <path
           style="baseline-shift:baseline;display:inline;overflow:visible;vector-effect:none;fill:#000000;stroke-linejoin:round;enable-background:accumulate;stop-color:#000000;stop-opacity:1;fill-opacity:1"
           d="m 63.435547,114.73828 c -1.25229,0.47393 -1.726857,0.56184 -3.001953,0.70508 l 0.03516,0.29883 c 1.28097,-0.1439 1.809556,-0.246 3.074219,-0.72461 z"
           id="path13" />
        <g
           id="g2"
           style="fill:#000000;fill-opacity:1">
          <g
             id="path2"
             style="opacity:1;fill:#000000;fill-opacity:1">
            <path
               style="baseline-shift:baseline;display:inline;overflow:visible;vector-effect:none;fill:#000000;fill-rule:evenodd;enable-background:accumulate;stop-color:#000000;stop-opacity:1;fill-opacity:1"
               d="m 63.893849,114.72497 -0.474022,0.58035 -0.265463,-0.70145 z"
               id="path3" />
            <path
               style="baseline-shift:baseline;display:inline;overflow:visible;vector-effect:none;fill:#000000;fill-rule:evenodd;enable-background:accumulate;stop-color:#000000;stop-opacity:1;fill-opacity:1"
               d="m 63.076172,114.54102 0.328125,0.86328 0.582031,-0.71485 z m 0.15625,0.125 0.568359,0.0937 -0.365234,0.44531 z"
               id="path12" />
          </g>
        </g>
      </g>
      <g
         id="path450"
         style="opacity:1;fill:#000000;fill-opacity:1">
        <path
           style="baseline-shift:baseline;display:inline;overflow:visible;vector-effect:none;fill:#000000;stroke-linejoin:round;enable-background:accumulate;stop-color:#000000;stop-opacity:1;fill-opacity:1"
           d="m 56.751953,114.73828 -0.105469,0.2793 c 1.264663,0.47861 1.79325,0.58071 3.074219,0.72461 l 0.0332,-0.29883 c -1.275096,-0.14324 -1.749663,-0.23115 -3.001953,-0.70508 z"
           id="path17" />
        <g
           id="g14"
           style="fill:#000000;fill-opacity:1">
          <g
             id="path14"
             style="opacity:1;fill:#000000;fill-opacity:1">
            <path
               style="baseline-shift:baseline;display:inline;overflow:visible;vector-effect:none;fill:#000000;fill-rule:evenodd;enable-background:accumulate;stop-color:#000000;stop-opacity:1;fill-opacity:1"
               d="m 56.294322,114.72497 0.739485,-0.1211 -0.265463,0.70145 z"
               id="path15" />
            <path
               style="baseline-shift:baseline;display:inline;overflow:visible;vector-effect:none;fill:#000000;fill-rule:evenodd;enable-background:accumulate;stop-color:#000000;stop-opacity:1;fill-opacity:1"
               d="m 57.111328,114.54102 -0.910156,0.14843 0.583984,0.71485 z m -0.15625,0.125 -0.203125,0.53906 -0.363281,-0.44531 z"
               id="path16" />
          </g>
        </g>
      </g>
      <g
         id="path451"
         style="opacity:1;fill:#000000;fill-opacity:1">
        <path
           style="baseline-shift:baseline;display:inline;overflow:visible;vector-effect:none;fill:#000000;stroke-linejoin:round;enable-background:accumulate;stop-color:#000000;stop-opacity:1;fill-opacity:1"
           d="m 56.271484,115.75977 -0.111328,0.27929 c 1.194151,0.48539 1.705237,0.64851 3.044922,0.83203 l 0.04102,-0.29687 c -1.326579,-0.18173 -1.785934,-0.3313 -2.97461,-0.81445 z"
           id="path21" />
        <g
           id="g18"
           style="fill:#000000;fill-opacity:1">
          <g
             id="path18"
             style="opacity:1;fill:#000000;fill-opacity:1">
            <path
               style="baseline-shift:baseline;display:inline;overflow:visible;vector-effect:none;fill:#000000;fill-rule:evenodd;enable-background:accumulate;stop-color:#000000;stop-opacity:1;fill-opacity:1"
               d="m 59.654762,116.78119 -0.693644,0.28347 0.101794,-0.74306 z"
               id="path19" />
            <path
               style="baseline-shift:baseline;display:inline;overflow:visible;vector-effect:none;fill:#000000;fill-rule:evenodd;enable-background:accumulate;stop-color:#000000;stop-opacity:1;fill-opacity:1"
               d="m 59.025391,116.22852 -0.125,0.91601 0.853515,-0.34961 z m 0.07617,0.18554 0.455079,0.35352 -0.535157,0.2168 z"
               id="path20" />
          </g>
        </g>
      </g>
      <g
         id="path452"
         style="opacity:1;fill:#000000;fill-opacity:1">
        <path
           style="baseline-shift:baseline;display:inline;overflow:visible;vector-effect:none;fill:#000000;stroke-linejoin:round;enable-background:accumulate;stop-color:#000000;stop-opacity:1;fill-opacity:1"
           d="m 63.435547,115.93945 c -1.252289,0.47394 -1.726857,0.56184 -3.001953,0.70508 l 0.03516,0.29883 c 1.28097,-0.1439 1.809556,-0.24404 3.074219,-0.72266 z"
           id="path25" />
        <g
           id="g22"
           style="fill:#000000;fill-opacity:1">
          <g
             id="path22"
             style="opacity:1;fill:#000000;fill-opacity:1">
            <path
               style="baseline-shift:baseline;display:inline;overflow:visible;vector-effect:none;fill:#000000;fill-rule:evenodd;enable-background:accumulate;stop-color:#000000;stop-opacity:1;fill-opacity:1"
               d="m 63.893848,115.92681 -0.474018,0.58035 -0.265467,-0.70145 z"
               id="path23" />
            <path
               style="baseline-shift:baseline;display:inline;overflow:visible;vector-effect:none;fill:#000000;fill-rule:evenodd;enable-background:accumulate;stop-color:#000000;stop-opacity:1;fill-opacity:1"
               d="m 63.076172,115.74219 0.328125,0.86328 0.582031,-0.71484 z m 0.15625,0.12695 0.568359,0.0937 -0.365234,0.44531 z"
               id="path24" />
          </g>
        </g>
      </g>
      <path
         id="use1"
         d="m 54.682224,112.56256 q -0.08867,0 -0.09404,-0.0806 0,-0.0269 0.134342,-0.56961 0.134343,-0.54274 0.14509,-0.55886 0.04299,-0.14778 0.147777,-0.28749 0.188079,-0.23107 0.427209,-0.26869 0.0054,0 0.0215,0 0.01612,0 0.02687,-0.003 0.19614,0 0.300927,0.12897 0.104788,0.12897 0.104788,0.31705 0,0.15315 -0.06449,0.29824 -0.06448,0.14509 -0.163898,0.2445 -0.09941,0.0994 -0.214948,0.1639 -0.115534,0.0645 -0.212261,0.0618 h -0.02956 -0.01881 q -0.13703,0 -0.223009,-0.12091 l -0.01343,-0.0161 -0.07254,0.30093 q -0.06717,0.26062 -0.07792,0.29555 -0.01075,0.0349 -0.03224,0.0564 -0.04299,0.0376 -0.09135,0.0376 z m 0.983387,-1.44552 q 0,-0.0994 -0.04568,-0.16121 -0.04568,-0.0618 -0.134343,-0.0618 -0.09404,0 -0.188079,0.0779 -0.09404,0.0779 -0.150464,0.2042 -0.03762,0.0833 -0.1021,0.34929 l -0.04568,0.1827 q 0.04568,0.2042 0.225695,0.2042 0.1021,0 0.198827,-0.0967 0.08867,-0.0806 0.147777,-0.25793 0.05911,-0.17733 0.07792,-0.29018 0.01881,-0.11285 0.01612,-0.15046 z"
         style="fill:#000000;stroke:#000000;stroke-width:0" />
    </g>
  </g>
</svg>
